<svg width="338" height="337" xmlns="http://www.w3.org/2000/svg" xmlns:xlink="http://www.w3.org/1999/xlink" xml:space="preserve" overflow="hidden"><g transform="translate(-790 -224)"><g><g><g><g><path d="M998.046 224C998.046 224.595 998.046 225.189 998.046 225.817 998.046 247.16 980.744 264.457 959.406 264.457 938.063 264.457 920.767 247.155 920.767 225.817L920.767 225.817C920.767 225.189 920.767 224.595 920.767 224L791 224 791 561 1128 561 1128 224Z" fill="#654FF0" fill-rule="nonzero" fill-opacity="1"/><path d="M869.281 405.611 891.615 405.611 906.863 486.816 907.138 486.816 925.464 405.611 946.356 405.611 962.909 487.813 963.233 487.813 980.612 405.611 1002.52 405.611 974.054 524.932 951.89 524.932 935.475 443.727 935.045 443.727 917.474 524.932 894.897 524.932ZM1027.7 405.611 1062.91 405.611 1097.87 524.932 1074.83 524.932 1067.23 498.38 1027.12 498.38 1021.25 524.932 998.811 524.932ZM1041.1 435.021 1031.36 478.798 1061.68 478.798 1050.5 435.021Z" fill="#FFFFFF" fill-rule="nonzero" fill-opacity="1"/></g></g></g></g></g></svg>